<svg width="209" height="181" viewBox="0 0 209 181" fill="none" xmlns="http://www.w3.org/2000/svg">
<mask id="mask0_18_198" style="mask-type:alpha" maskUnits="userSpaceOnUse" x="15" y="0" width="179" height="181">
<path d="M96.6816 8.26178C99.9573 4.68463 105.561 4.57978 108.985 7.961L109.32 8.31061L110.296 9.37994C120.346 20.3145 129.427 27.7289 139.282 31.2969C149.224 34.8965 160.67 34.8268 175.862 29.0928L176.336 28.9297C181.248 27.3981 186.837 30.5337 187.409 36.1573C190.866 70.1592 186.129 104.441 172.821 130.463C159.426 156.657 137.056 174.84 105.796 174.84C75.0625 174.84 51.7746 160.548 37.4131 135.756C23.2356 111.281 17.9394 76.9623 21.6455 36.6827L21.6768 36.3975C22.4018 30.5401 28.5954 27.4733 33.6357 29.668L33.8789 29.7784L35.3086 30.4385C49.9469 37.0389 60.4057 36.7068 69.127 32.8965C78.5897 28.7623 86.9083 20.1883 96.3623 8.63092L96.6816 8.26178Z" fill="#D9D9D9" stroke="#7F19CE" stroke-width="11"/>
</mask>
<g mask="url(#mask0_18_198)">
<rect x="12" y="-10.6601" width="188" height="196" fill="#9212F5"/>
<rect x="-19.3611" y="28.3399" width="233.281" height="150.529" transform="rotate(26.2762 -19.3611 28.3399)" fill="#6F12B7"/>
</g>
<path d="M66.278 142.62C59.9633 142.62 54.502 141.468 49.894 139.164C45.286 136.775 41.702 133.489 39.142 129.308C36.6673 125.041 35.43 120.092 35.43 114.46V74.7799C35.43 69.1479 36.6673 64.2412 39.142 60.0599C41.702 55.7932 45.286 52.5079 49.894 50.2039C54.502 47.8146 59.9207 46.6199 66.15 46.6199C72.4647 46.6199 77.8833 47.8146 82.406 50.2039C87.014 52.5079 90.5553 55.7932 93.03 60.0599C95.59 64.2412 96.87 69.1479 96.87 74.7799V114.46C96.87 120.092 95.59 125.041 93.03 129.308C90.5553 133.489 87.014 136.775 82.406 139.164C77.8833 141.468 72.5073 142.62 66.278 142.62ZM66.15 125.98C70.1607 125.98 73.2753 124.956 75.494 122.908C77.798 120.86 78.95 118.044 78.95 114.46V74.7799C78.95 71.1959 77.798 68.3799 75.494 66.3319C73.2753 64.2839 70.1607 63.2599 66.15 63.2599C62.1393 63.2599 58.982 64.2839 56.678 66.3319C54.4593 68.3799 53.35 71.1959 53.35 74.7799V114.46C53.35 118.044 54.502 120.86 56.806 122.908C59.11 124.956 62.2247 125.98 66.15 125.98ZM66.15 103.452C63.5047 103.452 61.3287 102.599 59.622 100.892C58.0007 99.1852 57.19 96.9666 57.19 94.2359C57.19 91.5052 58.0007 89.3292 59.622 87.7079C61.3287 86.0866 63.5047 85.2759 66.15 85.2759C68.8807 85.2759 71.0567 86.0866 72.678 87.7079C74.2993 89.3292 75.11 91.5052 75.11 94.2359C75.11 96.9666 74.2993 99.1852 72.678 100.892C71.0567 102.599 68.8807 103.452 66.15 103.452ZM114.74 141.34V124.7H138.292V65.4359L114.484 83.0999V63.2599L136.372 47.8999H157.492V124.7H176.18V141.34H114.74Z" fill="white"/>
</svg>
