<svg width="178" height="178" viewBox="0 0 178 178" fill="none" xmlns="http://www.w3.org/2000/svg">
<mask id="mask0_18_198" style="mask-type:alpha" maskUnits="userSpaceOnUse" x="-1" y="-1" width="179" height="179">
<path d="M81.199 7.88672C84.5811 4.21508 90.4211 4.22608 93.8025 7.93359C104.171 19.302 113.454 26.9796 123.555 30.6143C133.431 34.1676 144.802 34.099 159.891 28.4424L160.364 28.2812C165.191 26.7875 170.666 29.7948 171.387 35.2402L171.42 35.5098L171.574 37.084C174.7 70.1514 169.929 103.36 156.901 128.667C143.575 154.551 121.335 172.5 90.2781 172.5C59.7465 172.5 36.5945 158.394 22.3083 133.896C8.20653 109.713 2.9394 75.8096 6.61694 36.0312C7.17495 29.9984 13.4703 26.801 18.5857 29.0127L18.8289 29.1221L20.2488 29.7734C34.7855 36.2834 45.1746 35.9541 53.8367 32.1934C63.2309 28.1147 71.4901 19.6594 80.8796 8.25391L81.199 7.88672Z" fill="#D9D9D9" stroke="#7F19CE" stroke-width="11"/>
</mask>
<g mask="url(#mask0_18_198)">
<rect x="-2.93115" y="-10.75" width="186.825" height="193.55" fill="#9212F5"/>
<rect width="231.538" height="148.832" transform="matrix(0.897774 0.440456 -0.444947 0.895557 -34.0964 27.7625)" fill="#6F12B7"/>
</g>
<path d="M51.2656 136.855C44.9509 136.855 39.4896 135.703 34.8816 133.399C30.2736 131.01 26.6896 127.724 24.1296 123.543C21.6549 119.276 20.4176 114.327 20.4176 108.695V69.0149C20.4176 63.3829 21.6549 58.4763 24.1296 54.2949C26.6896 50.0283 30.2736 46.7429 34.8816 44.4389C39.4896 42.0496 44.9083 40.8549 51.1376 40.8549C57.4523 40.8549 62.8709 42.0496 67.3936 44.4389C72.0016 46.7429 75.5429 50.0283 78.0176 54.2949C80.5776 58.4763 81.8576 63.3829 81.8576 69.0149V108.695C81.8576 114.327 80.5776 119.276 78.0176 123.543C75.5429 127.724 72.0016 131.01 67.3936 133.399C62.8709 135.703 57.4949 136.855 51.2656 136.855ZM51.1376 120.215C55.1483 120.215 58.2629 119.191 60.4816 117.143C62.7856 115.095 63.9376 112.279 63.9376 108.695V69.0149C63.9376 65.4309 62.7856 62.6149 60.4816 60.5669C58.2629 58.5189 55.1483 57.4949 51.1376 57.4949C47.1269 57.4949 43.9696 58.5189 41.6656 60.5669C39.4469 62.6149 38.3376 65.4309 38.3376 69.0149V108.695C38.3376 112.279 39.4896 115.095 41.7936 117.143C44.0976 119.191 47.2123 120.215 51.1376 120.215ZM51.1376 97.687C48.4923 97.687 46.3163 96.8336 44.6096 95.1269C42.9883 93.4203 42.1776 91.2016 42.1776 88.4709C42.1776 85.7403 42.9883 83.5643 44.6096 81.9429C46.3163 80.3216 48.4923 79.5109 51.1376 79.5109C53.8683 79.5109 56.0443 80.3216 57.6656 81.9429C59.2869 83.5643 60.0976 85.7403 60.0976 88.4709C60.0976 91.2016 59.2869 93.4203 57.6656 95.1269C56.0443 96.8336 53.8683 97.687 51.1376 97.687ZM99.7276 135.575V118.935H123.28V59.6709L99.4716 77.3349V57.4949L121.36 42.1349H142.48V118.935H161.168V135.575H99.7276Z" fill="white"/>
</svg>
