<svg width="238" height="178" viewBox="0 0 238 178" fill="none" xmlns="http://www.w3.org/2000/svg">
<mask id="mask0_18_79" style="mask-type:alpha" maskUnits="userSpaceOnUse" x="57" y="16" width="123" height="145">
<path d="M63.2909 38.5885C61.321 37.5445 58.8328 38.7877 58.6647 41.0108C53.2461 112.687 75.3269 160.406 119.679 160.406C163.972 160.406 183.752 100.699 178.728 40.4519C178.555 38.37 176.322 37.1464 174.398 37.9619C150.44 48.1204 135.897 38.572 119.959 18.1813C118.694 16.5621 116.204 16.6131 115.023 18.2948C100.848 38.4787 87.6793 51.5133 63.2909 38.5885Z" fill="#151516"/>
</mask>
<g mask="url(#mask0_18_79)">
<rect x="57.8589" y="14.8476" width="121.525" height="146.012" fill="#151516"/>
<rect x="90.4961" y="11.8476" width="144" height="15" transform="rotate(29.9827 90.4961 11.8476)" fill="#3C0466"/>
<rect x="78.5645" y="26.8476" width="144" height="7.13231" transform="rotate(29.9827 78.5645 26.8476)" fill="#3C0466"/>
<rect x="39.5649" y="106.848" width="144" height="43.1526" transform="rotate(29.9827 39.5649 106.848)" fill="#3C0466"/>
<path d="M162 84.498L149.5 62.8476L137 84.498V15.8476H162V84.498Z" fill="#7F19CE"/>
</g>
<path d="M108.281 13.1142C112.856 7.00189 121.99 6.97802 126.656 12.9472C134.415 22.8749 140.935 28.9153 147.497 31.705C153.529 34.2696 160.706 34.5357 171.081 30.1366L171.398 30.0077C177.986 27.4477 186.243 31.359 187.16 39.3554L187.199 39.746L187.316 41.203C189.674 71.8234 185.891 102.71 175.481 126.436C164.896 150.561 146.519 168.906 119.679 168.906C93.7274 168.906 74.4583 154.622 62.897 131.371C51.5643 108.579 47.4193 77.0064 50.189 40.37L50.2271 39.956C51.1455 31.4719 60.2209 27.6206 66.9478 30.913L67.271 31.078L68.229 31.5741C78.0107 36.516 84.172 35.8285 89.104 33.2958C95.1495 30.1911 100.944 23.5519 108.067 13.4101L108.281 13.1142Z" stroke="#7F19CE" stroke-width="17"/>
<path d="M68.8086 111.173L34.3086 95.5726V84.8476L68.8086 69.1726V79.3726L48.1086 88.4476C47.1086 88.8976 46.0586 89.2726 44.9586 89.5726C43.8586 89.8726 42.9836 90.0726 42.3336 90.1726C42.9836 90.2726 43.8586 90.4726 44.9586 90.7726C46.0586 91.0226 47.1086 91.3726 48.1086 91.8226L68.8086 100.898V111.173ZM96.6043 115.598C92.9043 115.598 89.7043 114.923 87.0043 113.573C84.3043 112.173 82.2043 110.248 80.7043 107.798C79.2543 105.298 78.5293 102.398 78.5293 99.0976V75.8476C78.5293 72.5476 79.2543 69.6726 80.7043 67.2226C82.2043 64.7226 84.3043 62.7976 87.0043 61.4476C89.7043 60.0476 92.8793 59.3476 96.5293 59.3476C100.229 59.3476 103.404 60.0476 106.054 61.4476C108.754 62.7976 110.829 64.7226 112.279 67.2226C113.779 69.6726 114.529 72.5476 114.529 75.8476V99.0976C114.529 102.398 113.779 105.298 112.279 107.798C110.829 110.248 108.754 112.173 106.054 113.573C103.404 114.923 100.254 115.598 96.6043 115.598ZM96.5293 105.848C98.8793 105.848 100.704 105.248 102.004 104.048C103.354 102.848 104.029 101.198 104.029 99.0976V75.8476C104.029 73.7476 103.354 72.0976 102.004 70.8976C100.704 69.6976 98.8793 69.0976 96.5293 69.0976C94.1793 69.0976 92.3293 69.6976 90.9793 70.8976C89.6793 72.0976 89.0293 73.7476 89.0293 75.8476V99.0976C89.0293 101.198 89.7043 102.848 91.0543 104.048C92.4043 105.248 94.2293 105.848 96.5293 105.848ZM96.5293 92.6476C94.9793 92.6476 93.7043 92.1476 92.7043 91.1476C91.7543 90.1476 91.2793 88.8476 91.2793 87.2476C91.2793 85.6476 91.7543 84.3726 92.7043 83.4226C93.7043 82.4726 94.9793 81.9976 96.5293 81.9976C98.1293 81.9976 99.4043 82.4726 100.354 83.4226C101.304 84.3726 101.779 85.6476 101.779 87.2476C101.779 88.8476 101.304 90.1476 100.354 91.1476C99.4043 92.1476 98.1293 92.6476 96.5293 92.6476ZM125 114.848V105.098H138.8V70.3726L124.85 80.7226V69.0976L137.675 60.0976H150.05V105.098H161V114.848H125ZM169.221 111.173V100.973L189.921 91.8976C190.921 91.4476 191.971 91.0726 193.071 90.7726C194.171 90.4726 195.046 90.2726 195.696 90.1726C195.046 90.0726 194.171 89.8976 193.071 89.6476C191.971 89.3476 190.921 88.9726 189.921 88.5226L169.221 79.4476V69.1726L203.721 84.7726V95.4976L169.221 111.173Z" fill="white"/>
</svg>
